Coordinates
version=1
nRows=17
nColumns=24
inDegrees=yes

Units are S.I. units (second, meters, Newtons, ...)
Angles are in degrees.

endheader
time	pelvis_tilt	pelvis_list	pelvis_rotation	pelvis_tx	pelvis_ty	pelvis_tz	hip_flexion_r	hip_adduction_r	hip_rotation_r	knee_angle_r	ankle_angle_r	subtalar_angle_r	mtp_angle_r	hip_flexion_l	hip_adduction_l	hip_rotation_l	knee_angle_l	ankle_angle_l	subtalar_angle_l	mtp_angle_l	lumbar_extension	lumbar_bending	lumbar_rotation
      4.54000000	     31.99089318	      3.11179108	      2.72901371	      0.56303484	      0.67480006	     -0.31837410	    -20.56181263	     -7.11389773	    -14.02106045	    -66.02476169	      7.21472765	      3.05115759	      0.00000000	    -25.82042238	      5.02731738	     -3.77385386	    -14.97389552	     15.84135564	     10.39232730	      0.00000000	    -62.39499411	      1.55328433	     -3.90885092
      4.54500000	     31.81063268	      2.98642426	      3.13015998	      0.56992319	      0.67583889	     -0.31874067	    -19.31872154	     -6.80806295	    -14.40480800	    -65.75340683	      8.10840995	      2.74251655	      0.00000000	    -26.81665352	      4.70918457	     -3.54409950	    -13.90257332	     15.70857750	     10.52173630	      0.00000000	    -62.26984532	      1.93201467	     -3.97031625
      4.55000000	     31.77028803	      3.02781969	      4.22750859	      0.57674380	      0.67693183	     -0.31944080	    -18.55366729	     -6.40584418	    -15.59335003	    -65.10972716	      8.84762935	      2.36018370	      0.00000000	    -27.85657298	      4.14731845	     -2.78723791	    -13.03549164	     15.78344160	     11.10654127	      0.00000000	    -62.30128117	      2.74855058	     -4.64949807
      4.55500000	     31.67303214	      2.99027937	      4.97449650	      0.58359377	      0.67781054	     -0.31994042	    -17.60892878	     -6.07483233	    -16.38564441	    -64.49481395	      9.57676373	      2.05367801	      0.00000000	    -28.85686468	      3.67899424	     -2.34761080	    -12.10534862	     15.78719658	     11.46471798	      0.00000000	    -62.26508008	      3.33447034	     -4.97731990
      4.56000000	     31.51336086	      2.92315008	      5.64003542	      0.59046627	      0.67851781	     -0.32034879	    -16.58025305	     -5.75281101	    -17.07025436	    -63.82083770	     10.20390141	      1.76127206	      0.00000000	    -29.76631206	      3.20911988	     -2.00941521	    -11.20727630	     15.79502668	     11.84610205	      0.00000000	    -62.16449008	      3.85648790	     -5.23837286
      4.56500000	     31.38822417	      2.94127409	      6.35509873	      0.59727986	      0.67911490	     -0.32073210	    -15.64593870	     -5.50515003	    -17.82787264	    -63.04142903	     10.78928453	      1.41233568	      0.00000000	    -30.67522240	      2.76938504	     -1.63318222	    -10.37131278	     15.79092126	     12.22897467	      0.00000000	    -62.11476629	      4.35512112	     -5.65455688
      4.57000000	     31.33099705	      3.04311990	      7.10302470	      0.60403186	      0.67959513	     -0.32110165	    -14.84485601	     -5.33711667	    -18.64134871	    -62.16445960	     11.39927574	      1.08173135	      0.00000000	    -31.61799836	      2.36581510	     -1.17322706	     -9.61048351	     15.81046198	     12.52547285	      0.00000000	    -62.15187219	      4.81903530	     -6.11734754
      4.57500000	     31.16717649	      3.06116171	      7.67692706	      0.61086485	      0.67989634	     -0.32135145	    -13.87444551	     -5.15148299	    -19.20932858	    -61.24931682	     11.83096950	      0.80847780	      0.00000000	    -32.44331948	      1.97767473	     -0.93140743	     -8.85153776	     15.82298538	     12.85813859	      0.00000000	    -62.06758807	      5.19514509	     -6.44115847
      4.58000000	     31.04611964	      3.18034989	      8.32067915	      0.61762205	      0.68008707	     -0.32157081	    -13.02101180	     -5.04666440	    -19.86509979	    -60.23189740	     12.26805576	      0.49242429	      0.00000000	    -33.26372447	      1.61632381	     -0.61560259	     -8.19206636	     15.87798419	     13.22454146	      0.00000000	    -62.04811459	      5.54575959	     -6.87877168
      4.58500000	     30.93537004	      3.32595342	      8.91505566	      0.62436212	      0.68015067	     -0.32175264	    -12.19904015	     -4.98963443	    -20.45118433	    -59.14116520	     12.67048014	      0.21675035	      0.00000000	    -34.06723196	      1.29651767	     -0.30793605	     -7.59385301	     15.94036483	     13.52297543	      0.00000000	    -62.04833573	      5.83897295	     -7.29100570
      4.59000000	     30.80949192	      3.49585197	      9.45158674	      0.63109764	      0.68008184	     -0.32185726	    -11.37289759	     -4.97181678	    -20.93945795	    -57.98476438	     13.00935836	     -0.05052436	      0.00000000	    -34.82979851	      1.01982036	     -0.05069341	     -7.05211078	     16.00980556	     13.82232299	      0.00000000	    -62.04471693	      6.06941191	     -7.69794562
      4.59500000	     30.69052714	      3.71339126	      9.97249147	      0.63779879	      0.67988979	     -0.32192526	    -10.58771081	     -5.00971552	    -21.39281320	    -56.75358430	     13.32331599	     -0.31303604	      0.00000000	    -35.56800352	      0.78339408	      0.20008977	     -6.58230854	     16.11918038	     14.11280787	      0.00000000	    -62.06332555	      6.24778618	     -8.10652063
      4.60000000	     30.60512210	      3.99023414	     10.48883593	      0.64448784	      0.67960648	     -0.32193496	     -9.89376477	     -5.09908099	    -21.82378844	    -55.42432463	     13.63665885	     -0.54495806	      0.00000000	    -36.30735009	      0.58076457	      0.50143292	     -6.20277707	     16.27345662	     14.37060430	      0.00000000	    -62.12377262	      6.36605733	     -8.50127491
      4.60500000	     30.46265046	      4.24358360	     10.86387161	      0.65121827	      0.67917319	     -0.32186090	     -9.10997604	     -5.20333400	    -22.04206131	    -54.06032153	     13.84402085	     -0.77182173	      0.00000000	    -36.98821240	      0.44967886	      0.65484949	     -5.83150036	     16.38879537	     14.60922412	      0.00000000	    -62.13130570	      6.40029814	     -8.87391926
      4.61000000	     30.33094742	      4.55460528	     11.25564486	      0.65794105	      0.67864944	     -0.32173355	     -8.39816451	     -5.35232158	    -22.25569907	    -52.59675540	     14.05117703	     -0.99281195	      0.00000000	    -37.64475041	      0.34202478	      0.82666086	     -5.55146510	     16.55596242	     14.87841985	      0.00000000	    -62.15932943	      6.39381724	     -9.26150481
      4.61500000	     30.17775378	      4.85232800	     11.44175389	      0.66469730	      0.67794298	     -0.32154609	     -7.62405546	     -5.54358304	    -22.21551974	    -51.12019064	     14.30595087	     -1.14556365	      0.00000000	    -38.28308131	      0.37067342	      0.92737123	     -5.30134351	     16.72072461	     14.94217053	      0.00000000	    -62.17465913	      6.24249329	     -9.41834105
      4.62000000	     30.05871795	      5.25975987	     11.89809225	      0.67140940	      0.67728995	     -0.32134293	     -7.05104987	     -5.75038548	    -22.42226635	    -49.44717034	     14.40146489	     -1.38414957	      0.00000000	    -38.89596084	      0.26985719	      1.08392676	     -5.16051652	     16.94632910	     15.38372441	      0.00000000	    -62.23127019	      6.21500889	     -9.97642260
